<svg version="1.0" xmlns="http://www.w3.org/2000/svg" width="1042.000000pt" height="120.000000pt" viewBox="0 0 1042.000000 120.000000" preserveAspectRatio="xMidYMid meet">

<g transform="translate(0.000000,120.000000) scale(0.100000,-0.100000)" fill="#7582ec" stroke="none">
<path d="M4110 1116 c0 -9 5 -16 10 -16 6 0 10 4 10 9 0 6 -4 13 -10 16 -5 3 -10 -1 -10 -9z" fill="#7582ec"/>
<path d="M8376 1121 c-4 -7 -5 -15 -2 -18 9 -9 19 4 14 18 -4 11 -6 11 -12 0z" fill="#7582ec"/>
<path d="M573 1083 c76 -2 198 -2 270 0 73 1 11 3 -138 3 -148 0 -208 -2 -132 -3z" fill="#7582ec"/>
<path d="M4223 1083 c32 -2 81 -2 110 0 29 2 3 3 -58 3 -60 0 -84 -1 -52 -3z" fill="#7582ec"/>
<path d="M5478 1083 c133 -2 351 -2 485 0 133 1 24 2 -243 2 -267 0 -376 -1 -242 -2z" fill="#7582ec"/>
<path d="M8493 1083 c32 -2 81 -2 110 0 29 2 3 3 -58 3 -60 0 -84 -1 -52 -3z" fill="#7582ec"/>
<path d="M399 998 c-6 -12 -23 -42 -36 -65 -14 -24 -21 -43 -16 -43 11 0 77 119 70 126 -3 3 -11 -5 -18 -18z" fill="#7582ec"/>
<path d="M1003 978 c13 -24 30 -54 36 -66 7 -13 15 -21 18 -18 7 7 -59 126 -70 126 -5 0 2 -19 16 -42z" fill="#7582ec"/>
<path d="M4114 935 c0 -49 1 -71 3 -48 2 23 2 64 0 90 -2 26 -3 8 -3 -42z" fill="#7582ec"/>
<path d="M4434 935 c0 -49 1 -71 3 -48 2 23 2 64 0 90 -2 26 -3 8 -3 -42z" fill="#7582ec"/>
<path d="M5199 998 c-6 -12 -23 -42 -36 -65 -14 -24 -21 -43 -16 -43 11 0 77 119 70 126 -3 3 -11 -5 -18 -18z" fill="#7582ec"/>
<path d="M6159 998 c-6 -12 -23 -42 -36 -65 -14 -24 -21 -43 -16 -43 11 0 77 119 70 126 -3 3 -11 -5 -18 -18z" fill="#7582ec"/>
<path d="M8384 935 c0 -49 1 -71 3 -48 2 23 2 64 0 90 -2 26 -3 8 -3 -42z" fill="#7582ec"/>
<path d="M8704 935 c0 -49 1 -71 3 -48 2 23 2 64 0 90 -2 26 -3 8 -3 -42z" fill="#7582ec"/>
<path d="M1550 906 c0 -9 5 -16 10 -16 6 0 10 4 10 9 0 6 -4 13 -10 16 -5 3 -10 -1 -10 -9z" fill="#7582ec"/>
<path d="M1870 906 c0 -9 5 -16 10 -16 6 0 10 4 10 9 0 6 -4 13 -10 16 -5 3 -10 -1 -10 -9z" fill="#7582ec"/>
<path d="M9120 905 c0 -8 5 -15 10 -15 6 0 10 7 10 15 0 8 -4 15 -10 15 -5 0 -10 -7 -10 -15z" fill="#7582ec"/>
<path d="M9440 905 c0 -8 5 -15 10 -15 6 0 10 7 10 15 0 8 -4 15 -10 15 -5 0 -10 -7 -10 -15z" fill="#7582ec"/>
<path d="M678 873 c18 -2 45 -2 60 0 15 2 0 4 -33 4 -33 0 -45 -2 -27 -4z" fill="#7582ec"/>
<path d="M1258 873 c45 -2 119 -2 165 0 45 1 8 3 -83 3 -91 0 -128 -2 -82 -3z" fill="#7582ec"/>
<path d="M1663 873 c32 -2 81 -2 110 0 29 2 3 3 -58 3 -60 0 -84 -1 -52 -3z" fill="#7582ec"/>
<path d="M2143 873 c59 -2 155 -2 215 0 59 1 10 3 -108 3 -118 0 -167 -2 -107 -3z" fill="#7582ec"/>
<path d="M2733 873 c32 -2 81 -2 110 0 29 2 3 3 -58 3 -60 0 -84 -1 -52 -3z" fill="#7582ec"/>
<path d="M3053 873 c32 -2 81 -2 110 0 29 2 3 3 -58 3 -60 0 -84 -1 -52 -3z" fill="#7582ec"/>
<path d="M3632 873 c59 -2 158 -2 220 0 62 1 14 3 -107 3 -121 0 -172 -2 -113 -3z" fill="#7582ec"/>
<path d="M4543 873 c32 -2 81 -2 110 0 29 2 3 3 -58 3 -60 0 -84 -1 -52 -3z" fill="#7582ec"/>
<path d="M5693 873 c76 -2 198 -2 270 0 73 1 11 3 -138 3 -148 0 -208 -2 -132 -3z" fill="#7582ec"/>
<path d="M6402 873 c59 -2 158 -2 220 0 62 1 14 3 -107 3 -121 0 -172 -2 -113 -3z" fill="#7582ec"/>
<path d="M6993 873 c31 -2 83 -2 115 0 31 2 5 3 -58 3 -63 0 -89 -1 -57 -3z" fill="#7582ec"/>
<path d="M7313 873 c31 -2 83 -2 115 0 31 2 5 3 -58 3 -63 0 -89 -1 -57 -3z" fill="#7582ec"/>
<path d="M7823 873 c76 -2 198 -2 270 0 73 1 11 3 -138 3 -148 0 -208 -2 -132 -3z" fill="#7582ec"/>
<path d="M8493 873 c32 -2 81 -2 110 0 29 2 3 3 -58 3 -60 0 -84 -1 -52 -3z" fill="#7582ec"/>
<path d="M8838 873 c45 -2 119 -2 165 0 45 1 8 3 -83 3 -91 0 -128 -2 -82 -3z" fill="#7582ec"/>
<path d="M9233 873 c31 -2 83 -2 115 0 31 2 5 3 -58 3 -63 0 -89 -1 -57 -3z" fill="#7582ec"/>
<path d="M9633 873 c75 -2 199 -2 275 0 75 1 13 3 -138 3 -151 0 -213 -2 -137 -3z" fill="#7582ec"/>
<path d="M270 749 c-17 -33 -30 -63 -27 -66 3 -3 16 15 28 39 12 23 29 53 37 66 8 12 10 22 5 22 -6 0 -25 -27 -43 -61z" fill="#7582ec"/>
<path d="M590 749 c-17 -33 -30 -63 -27 -66 3 -3 16 15 28 39 12 23 29 53 37 66 8 12 10 22 5 22 -6 0 -25 -27 -43 -61z" fill="#7582ec"/>
<path d="M800 751 c16 -33 35 -63 41 -67 14 -8 12 -2 -26 69 -40 76 -54 73 -15 -2z" fill="#7582ec"/>
<path d="M1554 725 c0 -49 1 -71 3 -48 2 23 2 64 0 90 -2 26 -3 8 -3 -42z" fill="#7582ec"/>
<path d="M1874 725 c0 -49 1 -71 3 -48 2 23 2 64 0 90 -2 26 -3 8 -3 -42z" fill="#7582ec"/>
<path d="M1999 788 c-6 -12 -23 -42 -36 -65 -14 -24 -21 -43 -16 -43 11 0 77 119 70 126 -3 3 -11 -5 -18 -18z" fill="#7582ec"/>
<path d="M2480 806 c0 -15 63 -126 71 -126 5 0 -5 26 -23 58 -33 60 -48 81 -48 68z" fill="#7582ec"/>
<path d="M2624 725 c0 -49 1 -71 3 -48 2 23 2 64 0 90 -2 26 -3 8 -3 -42z" fill="#7582ec"/>
<path d="M2944 725 c0 -49 1 -71 3 -48 2 23 2 64 0 90 -2 26 -3 8 -3 -42z" fill="#7582ec"/>
<path d="M3243 768 c13 -24 30 -54 36 -66 7 -13 15 -21 18 -18 7 7 -59 126 -70 126 -5 0 2 -19 16 -42z" fill="#7582ec"/>
<path d="M3470 749 c-17 -33 -30 -63 -27 -66 3 -3 16 15 28 39 12 23 29 53 37 66 8 12 10 22 5 22 -6 0 -25 -27 -43 -61z" fill="#7582ec"/>
<path d="M4000 751 c16 -33 35 -63 41 -67 14 -8 12 -2 -26 69 -40 76 -54 73 -15 -2z" fill="#7582ec"/>
<path d="M4114 725 c0 -49 1 -71 3 -48 2 23 2 64 0 90 -2 26 -3 8 -3 -42z" fill="#7582ec"/>
<path d="M4434 725 c0 -49 1 -71 3 -48 2 23 2 64 0 90 -2 26 -3 8 -3 -42z" fill="#7582ec"/>
<path d="M4720 806 c0 -15 63 -126 71 -126 5 0 -5 26 -23 58 -33 60 -48 81 -48 68z" fill="#7582ec"/>
<path d="M5163 768 c13 -24 30 -54 36 -66 7 -13 15 -21 18 -18 7 7 -59 126 -70 126 -5 0 2 -19 16 -42z" fill="#7582ec"/>
<path d="M6000 806 c0 -15 63 -126 71 -126 5 0 -5 26 -23 58 -33 60 -48 81 -48 68z" fill="#7582ec"/>
<path d="M6273 798 c-19 -24 -63 -118 -56 -118 9 0 75 122 69 127 -2 2 -8 -2 -13 -9z" fill="#7582ec"/>
<path d="M6763 768 c13 -24 30 -54 36 -66 7 -13 15 -21 18 -18 7 7 -59 126 -70 126 -5 0 2 -19 16 -42z" fill="#7582ec"/>
<path d="M6880 725 c0 -50 4 -85 10 -85 6 0 10 35 10 85 0 50 -4 85 -10 85 -6 0 -10 -35 -10 -85z" fill="#7582ec"/>
<path d="M7200 725 c0 -50 4 -85 10 -85 6 0 10 35 10 85 0 50 -4 85 -10 85 -6 0 -10 -35 -10 -85z" fill="#7582ec"/>
<path d="M7520 751 c16 -33 35 -63 41 -67 14 -8 12 -2 -26 69 -40 76 -54 73 -15 -2z" fill="#7582ec"/>
<path d="M7630 749 c-17 -33 -30 -63 -27 -66 3 -3 16 15 28 39 12 23 29 53 37 66 8 12 10 22 5 22 -6 0 -25 -27 -43 -61z" fill="#7582ec"/>
<path d="M8240 806 c0 -15 63 -126 71 -126 5 0 -5 26 -23 58 -33 60 -48 81 -48 68z" fill="#7582ec"/>
<path d="M8384 725 c0 -49 1 -71 3 -48 2 23 2 64 0 90 -2 26 -3 8 -3 -42z" fill="#7582ec"/>
<path d="M9120 725 c0 -50 4 -85 10 -85 6 0 10 35 10 85 0 50 -4 85 -10 85 -6 0 -10 -35 -10 -85z" fill="#7582ec"/>
<path d="M9440 725 c0 -50 4 -85 10 -85 6 0 10 35 10 85 0 50 -4 85 -10 85 -6 0 -10 -35 -10 -85z" fill="#7582ec"/>
<path d="M9520 806 c0 -15 63 -126 71 -126 5 0 -5 26 -23 58 -33 60 -48 81 -48 68z" fill="#7582ec"/>
<path d="M10080 751 c16 -33 35 -63 41 -67 14 -8 12 -2 -26 69 -40 76 -54 73 -15 -2z" fill="#7582ec"/>
<path d="M1118 764 c-16 -8 -28 -19 -28 -24 0 -11 71 -43 78 -35 3 3 -9 11 -26 17 -18 7 -32 15 -32 18 0 4 15 14 33 23 17 8 25 16 17 16 -8 0 -27 -7 -42 -15z" fill="#7582ec"/>
<path d="M8693 765 c-42 -18 -41 -27 2 -48 51 -24 67 -20 20 5 l-40 21 33 14 c17 7 32 15 32 18 0 8 -13 5 -47 -10z" fill="#7582ec"/>
<path d="M678 663 c18 -2 45 -2 60 0 15 2 0 4 -33 4 -33 0 -45 -2 -27 -4z" fill="#7582ec"/>
<path d="M2278 663 c18 -2 45 -2 60 0 15 2 0 4 -33 4 -33 0 -45 -2 -27 -4z" fill="#7582ec"/>
<path d="M3343 663 c15 -2 39 -2 55 0 15 2 2 4 -28 4 -30 0 -43 -2 -27 -4z" fill="#7582ec"/>
<path d="M3718 663 c45 -2 119 -2 165 0 45 1 8 3 -83 3 -91 0 -128 -2 -82 -3z" fill="#7582ec"/>
<path d="M5373 663 c76 -2 198 -2 270 0 73 1 11 3 -138 3 -148 0 -208 -2 -132 -3z" fill="#7582ec"/>
<path d="M6543 663 c15 -2 39 -2 55 0 15 2 2 4 -28 4 -30 0 -43 -2 -27 -4z" fill="#7582ec"/>
<path d="M9663 663 c32 -2 81 -2 110 0 29 2 3 3 -58 3 -60 0 -84 -1 -52 -3z" fill="#7582ec"/>
<path d="M193 588 c-19 -24 -63 -118 -56 -118 9 0 75 122 69 127 -2 2 -8 -2 -13 -9z" fill="#7582ec"/>
<path d="M704 515 c0 -49 1 -71 3 -48 2 23 2 64 0 90 -2 26 -3 8 -3 -42z" fill="#7582ec"/>
<path d="M1200 596 c0 -15 63 -126 71 -126 5 0 -5 26 -23 58 -33 60 -48 81 -48 68z" fill="#7582ec"/>
<path d="M1864 565 c-7 -19 -14 -41 -14 -50 0 -25 28 -85 40 -85 7 0 5 9 -4 22 -9 12 -16 41 -16 63 0 22 7 51 16 63 9 13 11 22 4 22 -6 0 -18 -16 -26 -35z" fill="#7582ec"/>
<path d="M2615 573 c8 -15 15 -41 15 -58 0 -16 -7 -43 -15 -58 -10 -20 -11 -27 -2 -24 6 2 18 21 26 41 13 33 13 44 0 79 -8 22 -20 42 -26 45 -9 2 -8 -4 2 -25z" fill="#7582ec"/>
<path d="M2944 515 c0 -49 1 -71 3 -48 2 23 2 64 0 90 -2 26 -3 8 -3 -42z" fill="#7582ec"/>
<path d="M3279 578 c-6 -12 -23 -42 -36 -65 -14 -24 -21 -43 -16 -43 11 0 77 119 70 126 -3 3 -11 -5 -18 -18z" fill="#7582ec"/>
<path d="M3360 541 c16 -33 35 -63 41 -67 14 -8 12 -2 -26 69 -40 76 -54 73 -15 -2z" fill="#7582ec"/>
<path d="M3680 541 c16 -33 35 -63 41 -67 14 -8 12 -2 -26 69 -40 76 -54 73 -15 -2z" fill="#7582ec"/>
<path d="M4114 515 c0 -49 1 -71 3 -48 2 23 2 64 0 90 -2 26 -3 8 -3 -42z" fill="#7582ec"/>
<path d="M4843 558 c13 -24 30 -54 36 -66 7 -13 15 -21 18 -18 7 7 -59 126 -70 126 -5 0 2 -19 16 -42z" fill="#7582ec"/>
<path d="M5199 578 c-6 -12 -23 -42 -36 -65 -14 -24 -21 -43 -16 -43 11 0 77 119 70 126 -3 3 -11 -5 -18 -18z" fill="#7582ec"/>
<path d="M6139 584 c-22 -26 -18 -119 5 -141 18 -17 19 -17 11 2 -15 35 -17 102 -5 125 15 27 8 36 -11 14z" fill="#7582ec"/>
<path d="M6888 559 c15 -38 15 -45 0 -85 -17 -47 -9 -61 10 -19 21 45 8 145 -19 145 -4 0 0 -19 9 -41z" fill="#7582ec"/>
<path d="M7200 515 c0 -50 4 -85 10 -85 6 0 10 35 10 85 0 50 -4 85 -10 85 -6 0 -10 -35 -10 -85z" fill="#7582ec"/>
<path d="M7553 588 c-19 -24 -63 -118 -56 -118 9 0 75 122 69 127 -2 2 -8 -2 -13 -9z" fill="#7582ec"/>
<path d="M8363 558 c13 -24 30 -54 36 -66 7 -13 15 -21 18 -18 7 7 -59 126 -70 126 -5 0 2 -19 16 -42z" fill="#7582ec"/>
<path d="M8704 515 c0 -49 1 -71 3 -48 2 23 2 64 0 90 -2 26 -3 8 -3 -42z" fill="#7582ec"/>
<path d="M8800 541 c16 -33 35 -63 41 -67 14 -8 12 -2 -26 69 -40 76 -54 73 -15 -2z" fill="#7582ec"/>
<path d="M9440 515 c0 -50 4 -85 10 -85 6 0 10 35 10 85 0 50 -4 85 -10 85 -6 0 -10 -35 -10 -85z" fill="#7582ec"/>
<path d="M9679 578 c-6 -12 -23 -42 -36 -65 -14 -24 -21 -43 -16 -43 11 0 77 119 70 126 -3 3 -11 -5 -18 -18z" fill="#7582ec"/>
<path d="M10160 596 c0 -15 63 -126 71 -126 5 0 -5 26 -23 58 -33 60 -48 81 -48 68z" fill="#7582ec"/>
<path d="M4500 585 c0 -6 7 -21 17 -34 9 -13 19 -38 24 -55 7 -30 7 -30 8 -4 1 15 10 43 22 62 12 20 17 36 12 36 -5 0 -16 -11 -23 -25 l-14 -26 -23 28 c-12 15 -22 23 -23 18z" fill="#7582ec"/>
<path d="M7820 558 c11 -18 20 -45 20 -60 0 -16 5 -28 10 -28 6 0 10 12 10 26 0 15 9 42 21 60 11 19 16 34 10 34 -6 0 -17 -12 -24 -27 l-14 -26 -18 26 c-25 39 -39 33 -15 -5z" fill="#7582ec"/>
<path d="M8020 585 c0 -6 7 -21 17 -34 9 -13 19 -38 24 -55 7 -30 7 -30 8 -4 1 15 10 43 22 62 12 20 17 36 12 36 -5 0 -16 -11 -23 -25 l-14 -26 -23 28 c-12 15 -22 23 -23 18z" fill="#7582ec"/>
<path d="M2193 559 c-24 -11 -43 -23 -43 -28 0 -9 65 -41 83 -41 7 1 -6 10 -28 22 l-39 21 37 14 c20 8 37 19 37 24 0 5 -1 9 -2 8 -2 0 -22 -9 -45 -20z" fill="#7582ec"/>
<path d="M2370 571 c0 -5 14 -14 30 -21 38 -16 38 -25 -2 -39 -17 -6 -29 -14 -26 -17 9 -8 78 23 78 35 0 6 -18 20 -40 31 -22 11 -40 16 -40 11z" fill="#7582ec"/>
<path d="M6630 571 c0 -5 17 -15 38 -23 l37 -14 -40 -22 c-47 -25 -31 -29 20 -5 19 9 34 21 32 27 -4 12 -87 48 -87 37z" fill="#7582ec"/>
<path d="M6453 555 c-42 -18 -41 -27 2 -48 51 -24 67 -20 20 5 l-40 21 33 14 c17 7 32 15 32 18 0 8 -13 5 -47 -10z" fill="#7582ec"/>
<path d="M1368 453 c45 -2 119 -2 165 0 45 1 8 3 -83 3 -91 0 -128 -2 -82 -3z" fill="#7582ec"/>
<path d="M2278 453 c18 -2 45 -2 60 0 15 2 0 4 -33 4 -33 0 -45 -2 -27 -4z" fill="#7582ec"/>
<path d="M3818 453 c45 -2 119 -2 165 0 45 1 8 3 -83 3 -91 0 -128 -2 -82 -3z" fill="#7582ec"/>
<path d="M6543 453 c15 -2 39 -2 55 0 15 2 2 4 -28 4 -30 0 -43 -2 -27 -4z" fill="#7582ec"/>
<path d="M8938 453 c45 -2 119 -2 165 0 45 1 8 3 -83 3 -91 0 -128 -2 -82 -3z" fill="#7582ec"/>
<path d="M9873 453 c31 -2 83 -2 115 0 31 2 5 3 -58 3 -63 0 -89 -1 -57 -3z" fill="#7582ec"/>
<path d="M10278 453 c18 -2 45 -2 60 0 15 2 0 4 -33 4 -33 0 -45 -2 -27 -4z" fill="#7582ec"/>
<path d="M160 331 c16 -33 35 -63 41 -67 14 -8 12 -2 -26 69 -40 76 -54 73 -15 -2z" fill="#7582ec"/>
<path d="M704 305 c0 -50 1 -71 3 -48 2 23 2 64 0 90 -2 26 -3 8 -3 -42z" fill="#7582ec"/>
<path d="M1230 329 c-17 -33 -30 -63 -27 -66 3 -3 16 15 28 39 12 23 29 53 37 66 8 12 10 22 5 22 -6 0 -25 -27 -43 -61z" fill="#7582ec"/>
<path d="M1874 305 c0 -50 1 -71 3 -48 2 23 2 64 0 90 -2 26 -3 8 -3 -42z" fill="#7582ec"/>
<path d="M1963 348 c13 -24 30 -54 36 -66 7 -13 15 -21 18 -18 7 7 -59 126 -70 126 -5 0 2 -19 16 -42z" fill="#7582ec"/>
<path d="M2510 329 c-17 -33 -30 -63 -27 -66 3 -3 16 15 28 39 12 23 29 53 37 66 8 12 10 22 5 22 -6 0 -25 -27 -43 -61z" fill="#7582ec"/>
<path d="M2624 305 c0 -50 1 -71 3 -48 2 23 2 64 0 90 -2 26 -3 8 -3 -42z" fill="#7582ec"/>
<path d="M3150 329 c-17 -33 -30 -63 -27 -66 3 -3 16 15 28 39 12 23 29 53 37 66 8 12 10 22 5 22 -6 0 -25 -27 -43 -61z" fill="#7582ec"/>
<path d="M3440 386 c0 -15 63 -126 71 -126 5 0 -5 26 -23 58 -33 60 -48 81 -48 68z" fill="#7582ec"/>
<path d="M4544 305 c0 -50 1 -71 3 -48 2 23 2 64 0 90 -2 26 -3 8 -3 -42z" fill="#7582ec"/>
<path d="M4879 368 c-6 -12 -23 -42 -36 -65 -14 -24 -21 -43 -16 -43 11 0 77 119 70 126 -3 3 -11 -5 -18 -18z" fill="#7582ec"/>
<path d="M5070 329 c-17 -33 -30 -63 -27 -66 3 -3 16 15 28 39 12 23 29 53 37 66 8 12 10 22 5 22 -6 0 -25 -27 -43 -61z" fill="#7582ec"/>
<path d="M6159 368 c-6 -12 -23 -42 -36 -65 -14 -24 -21 -43 -16 -43 11 0 77 119 70 126 -3 3 -11 -5 -18 -18z" fill="#7582ec"/>
<path d="M6240 331 c16 -33 35 -63 41 -67 14 -8 12 -2 -26 69 -40 76 -54 73 -15 -2z" fill="#7582ec"/>
<path d="M6799 368 c-6 -12 -23 -42 -36 -65 -14 -24 -21 -43 -16 -43 11 0 77 119 70 126 -3 3 -11 -5 -18 -18z" fill="#7582ec"/>
<path d="M6880 305 c0 -50 4 -85 10 -85 6 0 10 35 10 85 0 50 -4 85 -10 85 -6 0 -10 -35 -10 -85z" fill="#7582ec"/>
<path d="M7439 368 c-6 -12 -23 -42 -36 -65 -14 -24 -21 -43 -16 -43 11 0 77 119 70 126 -3 3 -11 -5 -18 -18z" fill="#7582ec"/>
<path d="M7520 305 c0 -50 4 -85 10 -85 6 0 10 35 10 85 0 50 -4 85 -10 85 -6 0 -10 -35 -10 -85z" fill="#7582ec"/>
<path d="M7840 305 c0 -50 4 -85 10 -85 6 0 10 35 10 85 0 50 -4 85 -10 85 -6 0 -10 -35 -10 -85z" fill="#7582ec"/>
<path d="M8064 305 c0 -50 1 -71 3 -48 2 23 2 64 0 90 -2 26 -3 8 -3 -42z" fill="#7582ec"/>
<path d="M8399 368 c-6 -12 -23 -42 -36 -65 -14 -24 -21 -43 -16 -43 11 0 77 119 70 126 -3 3 -11 -5 -18 -18z" fill="#7582ec"/>
<path d="M8704 305 c0 -50 1 -71 3 -48 2 23 2 64 0 90 -2 26 -3 8 -3 -42z" fill="#7582ec"/>
<path d="M8833 378 c-19 -24 -63 -118 -56 -118 9 0 75 122 69 127 -2 2 -8 -2 -13 -9z" fill="#7582ec"/>
<path d="M9440 305 c0 -50 4 -85 10 -85 6 0 10 35 10 85 0 50 -4 85 -10 85 -6 0 -10 -35 -10 -85z" fill="#7582ec"/>
<path d="M9544 355 c-7 -19 -14 -41 -14 -50 0 -25 28 -85 40 -85 7 0 5 9 -4 22 -9 12 -16 41 -16 63 0 22 7 51 16 63 9 13 11 22 4 22 -6 0 -18 -16 -26 -35z" fill="#7582ec"/>
<path d="M10319 368 c-6 -12 -23 -42 -36 -65 -14 -24 -21 -43 -16 -43 11 0 77 119 70 126 -3 3 -11 -5 -18 -18z" fill="#7582ec"/>
<path d="M4070 361 c0 -5 17 -15 38 -23 l37 -14 -40 -22 c-47 -25 -31 -29 20 -5 19 9 34 21 32 27 -4 12 -87 48 -87 37z" fill="#7582ec"/>
<path d="M322 243 c59 -2 158 -2 220 0 62 1 14 3 -107 3 -121 0 -172 -2 -113 -3z" fill="#7582ec"/>
<path d="M813 243 c32 -2 81 -2 110 0 29 2 3 3 -58 3 -60 0 -84 -1 -52 -3z" fill="#7582ec"/>
<path d="M1503 243 c59 -2 155 -2 215 0 59 1 10 3 -108 3 -118 0 -167 -2 -107 -3z" fill="#7582ec"/>
<path d="M2143 243 c59 -2 155 -2 215 0 59 1 10 3 -108 3 -118 0 -167 -2 -107 -3z" fill="#7582ec"/>
<path d="M2783 243 c59 -2 155 -2 215 0 59 1 10 3 -108 3 -118 0 -167 -2 -107 -3z" fill="#7582ec"/>
<path d="M3608 243 c45 -2 119 -2 165 0 45 1 8 3 -83 3 -91 0 -128 -2 -82 -3z" fill="#7582ec"/>
<path d="M4248 243 c45 -2 119 -2 165 0 45 1 8 3 -83 3 -91 0 -128 -2 -82 -3z" fill="#7582ec"/>
<path d="M5318 243 c106 -2 277 -2 380 0 103 1 16 2 -193 2 -209 0 -293 -1 -187 -2z" fill="#7582ec"/>
<path d="M6402 243 c59 -2 158 -2 220 0 62 1 14 3 -107 3 -121 0 -172 -2 -113 -3z" fill="#7582ec"/>
<path d="M7042 243 c59 -2 158 -2 220 0 62 1 14 3 -107 3 -121 0 -172 -2 -113 -3z" fill="#7582ec"/>
<path d="M7633 243 c31 -2 83 -2 115 0 31 2 5 3 -58 3 -63 0 -89 -1 -57 -3z" fill="#7582ec"/>
<path d="M7928 243 c18 -2 45 -2 60 0 15 2 0 4 -33 4 -33 0 -45 -2 -27 -4z" fill="#7582ec"/>
<path d="M8493 243 c32 -2 81 -2 110 0 29 2 3 3 -58 3 -60 0 -84 -1 -52 -3z" fill="#7582ec"/>
<path d="M9072 243 c59 -2 158 -2 220 0 62 1 14 3 -107 3 -121 0 -172 -2 -113 -3z" fill="#7582ec"/>
<path d="M9712 243 c59 -2 158 -2 220 0 62 1 14 3 -107 3 -121 0 -172 -2 -113 -3z" fill="#7582ec"/>
<path d="M1003 138 c13 -24 30 -54 36 -66 7 -13 15 -21 18 -18 7 7 -59 126 -70 126 -5 0 2 -19 16 -42z" fill="#7582ec"/>
<path d="M1153 168 c-19 -24 -63 -118 -56 -118 9 0 75 122 69 127 -2 2 -8 -2 -13 -9z" fill="#7582ec"/>
<path d="M1200 176 c0 -15 63 -126 71 -126 5 0 -5 26 -23 58 -33 60 -48 81 -48 68z" fill="#7582ec"/>
<path d="M1359 158 c-6 -12 -23 -42 -36 -65 -14 -24 -21 -43 -16 -43 11 0 77 119 70 126 -3 3 -11 -5 -18 -18z" fill="#7582ec"/>
<path d="M3883 138 c13 -24 30 -54 36 -66 7 -13 15 -21 18 -18 7 7 -59 126 -70 126 -5 0 2 -19 16 -42z" fill="#7582ec"/>
<path d="M4033 168 c-19 -24 -63 -118 -56 -118 9 0 75 122 69 127 -2 2 -8 -2 -13 -9z" fill="#7582ec"/>
<path d="M4640 121 c16 -33 35 -63 41 -67 14 -8 12 -2 -26 69 -40 76 -54 73 -15 -2z" fill="#7582ec"/>
<path d="M4750 119 c-17 -33 -30 -63 -27 -66 3 -3 16 15 28 39 12 23 29 53 37 66 8 12 10 22 5 22 -6 0 -25 -27 -43 -61z" fill="#7582ec"/>
<path d="M5920 121 c16 -33 35 -63 41 -67 14 -8 12 -2 -26 69 -40 76 -54 73 -15 -2z" fill="#7582ec"/>
<path d="M6030 119 c-17 -33 -30 -63 -27 -66 3 -3 16 15 28 39 12 23 29 53 37 66 8 12 10 22 5 22 -6 0 -25 -27 -43 -61z" fill="#7582ec"/>
<path d="M8160 121 c16 -33 35 -63 41 -67 14 -8 12 -2 -26 69 -40 76 -54 73 -15 -2z" fill="#7582ec"/>
<path d="M8270 119 c-17 -33 -30 -63 -27 -66 3 -3 16 15 28 39 12 23 29 53 37 66 8 12 10 22 5 22 -6 0 -25 -27 -43 -61z" fill="#7582ec"/>
<path d="M8800 121 c16 -33 35 -63 41 -67 14 -8 12 -2 -26 69 -40 76 -54 73 -15 -2z" fill="#7582ec"/>
<path d="M8910 119 c-17 -33 -30 -63 -27 -66 3 -3 16 15 28 39 12 23 29 53 37 66 8 12 10 22 5 22 -6 0 -25 -27 -43 -61z" fill="#7582ec"/>
<path d="M10080 121 c16 -33 35 -63 41 -67 14 -8 12 -2 -26 69 -40 76 -54 73 -15 -2z" fill="#7582ec"/>
<path d="M10190 119 c-17 -33 -30 -63 -27 -66 3 -3 16 15 28 39 12 23 29 53 37 66 8 12 10 22 5 22 -6 0 -25 -27 -43 -61z" fill="#7582ec"/>
</g>
</svg>