<svg version="1.0" xmlns="http://www.w3.org/2000/svg" width="1327.000000pt" height="186.000000pt" viewBox="0 0 1327.000000 186.000000" preserveAspectRatio="xMidYMid meet">

<g transform="translate(0.000000,186.000000) scale(0.100000,-0.100000)" fill="#7582ec" stroke="none">
<path d="M290 1471 l0 -100 -60 2 -60 2 0 -417 c0 -411 0 -418 20 -418 17 0 20 -7 20 -50 l0 -50 140 0 140 0 1 53 c0 28 1 117 2 197 l2 145 138 3 137 3 0 -151 c0 -143 1 -150 20 -150 17 0 20 -7 20 -50 l0 -50 140 0 140 0 1 50 c0 28 0 192 0 365 0 173 0 340 0 370 l-1 55 -41 0 -41 0 4 48 c3 45 2 48 -19 44 -22 -4 -23 -1 -23 52 l0 56 -40 0 -40 0 0 45 0 45 -300 0 -300 0 0 -99z m670 -51 c0 -27 -4 -50 -10 -50 -5 0 -10 18 -10 40 0 36 -2 40 -25 40 -14 0 -25 5 -25 10 0 6 16 10 35 10 l35 0 0 -50z m-32 -18 c3 -27 0 -32 -17 -32 -17 0 -21 6 -21 36 0 28 3 35 18 32 11 -2 18 -14 20 -36z m-158 -92 l0 -30 -160 0 -160 0 0 -55 c0 -48 -2 -55 -20 -55 -18 0 -20 7 -20 85 l0 85 180 0 180 0 0 -30z m0 -50 c0 -6 -55 -10 -145 -10 l-145 0 0 -40 c0 -22 -4 -40 -10 -40 -5 0 -10 23 -10 50 l0 50 155 0 c97 0 155 -4 155 -10z m310 -400 l0 -410 -130 0 -130 0 0 45 c0 25 5 45 10 45 6 0 10 -16 10 -35 l0 -35 110 0 110 0 0 390 0 390 -25 0 c-14 0 -25 5 -25 10 0 6 16 10 35 10 l35 0 0 -410z m-310 345 l0 -35 -140 0 -140 0 0 28 c0 16 3 32 7 35 3 4 66 7 140 7 l133 0 0 -35z m275 -345 l0 -375 -95 0 -95 0 -3 28 -3 27 80 0 81 0 0 351 c0 328 1 350 18 347 16 -3 17 -29 17 -378z m-275 50 l0 -30 -160 0 -160 0 -1 -57 c0 -32 -1 -121 -2 -198 l-2 -140 -95 0 -95 0 -3 28 -3 27 80 0 81 0 0 200 0 200 180 0 180 0 0 -30z m0 -50 c0 -6 -55 -10 -145 -10 l-145 0 0 -200 0 -200 -130 0 -130 0 0 45 c0 25 5 45 10 45 6 0 10 -16 10 -35 l0 -35 110 0 110 0 0 200 0 200 155 0 c97 0 155 -4 155 -10z" fill="#7582ec"/>
<path d="M1130 1455 c0 -108 1 -115 20 -115 17 0 20 -7 20 -50 l0 -50 40 0 40 0 0 -50 c0 -43 3 -50 20 -50 17 0 20 -7 20 -50 l0 -50 40 0 40 0 0 -50 c0 -43 3 -50 20 -50 17 0 20 -7 20 -50 l0 -50 40 0 40 0 0 -150 c0 -143 1 -150 20 -150 17 0 20 -7 20 -50 l0 -50 140 0 140 0 1 53 c0 28 1 117 2 197 l2 145 58 3 57 3 2 52 c0 29 1 72 2 97 l1 45 58 3 57 3 2 52 c0 29 1 72 2 97 l1 45 57 3 56 3 4 57 c2 31 2 85 -1 120 l-3 62 -39 0 -39 0 0 45 0 45 -120 0 -120 0 0 -99 0 -100 -60 2 -60 2 0 -101 0 -101 -80 0 -80 -1 0 54 0 54 -41 0 -41 0 4 48 c3 45 2 48 -19 44 -22 -4 -23 -1 -23 52 l0 56 -40 0 -40 0 0 45 0 45 -120 0 -120 0 0 -115z m310 -35 c0 -27 -4 -50 -10 -50 -5 0 -10 18 -10 40 0 36 -2 40 -25 40 -14 0 -25 5 -25 10 0 6 16 10 35 10 l35 0 0 -50z m720 -60 l0 -110 -60 0 -60 0 0 -100 0 -100 -60 0 -60 0 0 -100 0 -100 -60 0 -60 0 0 -200 0 -200 -130 0 -130 0 0 45 c0 25 5 45 10 45 6 0 10 -16 10 -35 l0 -35 110 0 110 0 0 200 0 200 60 0 60 0 0 100 0 100 60 0 60 0 0 100 0 100 60 0 60 0 0 90 c0 89 0 90 -25 90 -14 0 -25 5 -25 10 0 6 16 10 35 10 l35 0 0 -110z m-752 42 c3 -27 0 -32 -17 -32 -17 0 -21 6 -21 36 0 28 3 35 18 32 11 -2 18 -14 20 -36z m717 -42 l0 -75 -57 -3 -58 -3 -2 -57 c0 -31 -2 -75 -2 -97 l-1 -40 -57 -3 -58 -3 -2 -57 c0 -31 -2 -75 -2 -97 l-1 -40 -57 -3 -58 -3 -1 -57 c0 -31 -1 -120 -2 -197 l-2 -140 -95 0 -95 0 -3 28 -3 27 80 0 81 0 0 200 0 200 60 0 60 0 0 100 0 100 60 0 60 0 0 100 0 100 60 0 60 0 0 51 c0 43 3 50 18 47 14 -3 17 -15 17 -78z m-925 -55 c0 -31 3 -35 25 -35 14 0 25 -4 25 -10 0 -5 -16 -10 -35 -10 -35 0 -35 0 -35 45 0 25 5 45 10 45 6 0 10 -16 10 -35z m50 4 c0 -24 -4 -30 -17 -27 -11 2 -19 14 -21 31 -3 22 1 27 17 27 17 0 21 -6 21 -31z m310 -89 c0 -27 -4 -50 -10 -50 -5 0 -10 18 -10 40 0 36 -2 40 -25 40 -14 0 -25 5 -25 10 0 6 16 10 35 10 l35 0 0 -50z m-32 -18 c3 -27 0 -32 -17 -32 -17 0 -21 6 -21 36 0 28 3 35 18 32 11 -2 18 -14 20 -36z m-208 -97 c0 -31 3 -35 25 -35 14 0 25 -4 25 -10 0 -5 -16 -10 -35 -10 -35 0 -35 0 -35 45 0 25 5 45 10 45 6 0 10 -16 10 -35z m50 4 c0 -24 -4 -30 -17 -27 -11 2 -19 14 -21 31 -3 22 1 27 17 27 17 0 21 -6 21 -31z m70 -204 c0 -31 3 -35 25 -35 14 0 25 -4 25 -10 0 -5 -16 -10 -35 -10 -35 0 -35 0 -35 45 0 25 5 45 10 45 6 0 10 -16 10 -35z m50 4 c0 -24 -4 -30 -17 -27 -11 2 -19 14 -21 31 -3 22 1 27 17 27 17 0 21 -6 21 -31z" fill="#7582ec"/>
<path d="M2330 1471 l0 -100 -60 2 -60 2 0 -317 c0 -311 0 -318 20 -318 17 0 20 -7 20 -50 l0 -50 40 0 40 0 0 -50 c0 -43 3 -50 20 -50 17 0 20 -7 20 -50 l0 -50 320 0 320 0 2 53 c0 28 1 72 2 97 l1 45 58 3 57 3 1 49 c0 28 0 147 0 265 0 118 0 240 0 270 l-1 55 -41 0 -41 0 4 48 c3 45 2 48 -19 44 -22 -4 -23 -1 -23 52 l0 56 -40 0 -40 0 0 45 0 45 -300 0 -300 0 0 -99z m670 -51 c0 -27 -4 -50 -10 -50 -5 0 -10 18 -10 40 0 36 -2 40 -25 40 -14 0 -25 5 -25 10 0 6 16 10 35 10 l35 0 0 -50z m-32 -18 c3 -27 0 -32 -17 -32 -17 0 -21 6 -21 36 0 28 3 35 18 32 11 -2 18 -14 20 -36z m-158 -92 l0 -30 -160 0 -160 0 -1 -57 c0 -32 0 -147 0 -255 1 -192 1 -198 -19 -198 -20 0 -20 6 -20 285 l0 285 180 0 180 0 0 -30z m0 -50 c0 -6 -55 -10 -145 -10 l-145 0 0 -240 c0 -153 -4 -240 -10 -240 -6 0 -10 90 -10 250 l0 250 155 0 c97 0 155 -4 155 -10z m310 -300 l0 -310 -60 0 -60 0 0 -100 0 -100 -310 0 -310 0 0 45 c0 25 5 45 10 45 6 0 10 -16 10 -35 l0 -35 290 0 290 0 0 100 0 100 60 0 60 0 0 290 0 290 -25 0 c-14 0 -25 5 -25 10 0 6 16 10 35 10 l35 0 0 -310z m-310 47 l0 -234 -140 0 -140 0 1 226 c1 124 3 229 6 234 2 4 65 7 139 7 l134 0 0 -233z m275 -47 l0 -275 -57 -3 -58 -3 -2 -57 c0 -31 -2 -75 -2 -97 l-1 -40 -275 0 -275 0 -3 28 -3 27 260 0 261 0 0 100 0 100 60 0 60 0 0 251 c0 233 1 250 18 247 16 -3 17 -24 17 -278z m-805 -255 c0 -31 3 -35 25 -35 14 0 25 -4 25 -10 0 -5 -16 -10 -35 -10 -35 0 -35 0 -35 45 0 25 5 45 10 45 6 0 10 -16 10 -35z m50 4 c0 -24 -4 -30 -17 -27 -11 2 -19 14 -21 31 -3 22 1 27 17 27 17 0 21 -6 21 -31z" fill="#7582ec"/>
<path d="M3170 1155 c0 -408 0 -415 20 -415 17 0 20 -7 20 -50 l0 -50 40 0 40 0 0 -50 c0 -43 3 -50 20 -50 17 0 20 -7 20 -50 l0 -50 380 0 380 0 2 53 c0 28 1 72 2 97 l1 45 58 3 57 3 1 49 c0 28 0 192 0 365 0 173 0 340 0 370 l-1 55 -40 0 -40 0 0 45 0 45 -120 0 -120 0 0 -398 0 -399 -200 0 -200 0 1 296 c0 163 0 322 0 354 l-1 57 -40 0 -40 0 0 45 0 45 -120 0 -120 0 0 -415z m310 -35 c0 -227 -4 -350 -10 -350 -6 0 -10 120 -10 340 l0 340 -25 0 c-14 0 -25 5 -25 10 0 6 16 10 35 10 l35 0 0 -350z m720 -60 l0 -410 -60 0 -60 0 0 -100 0 -100 -370 0 -370 0 0 45 c0 25 5 45 10 45 6 0 10 -16 10 -35 l0 -35 350 0 350 0 0 100 0 100 60 0 60 0 0 390 0 390 -25 0 c-14 0 -25 5 -25 10 0 6 16 10 35 10 l35 0 0 -410z m-753 42 c2 -324 2 -332 -17 -332 -19 0 -20 9 -20 336 0 314 1 335 18 332 16 -3 17 -28 19 -336z m718 -42 l0 -375 -57 -3 -58 -3 -2 -57 c0 -31 -2 -75 -2 -97 l-1 -40 -335 0 -335 0 -3 27 -3 28 320 0 321 0 0 100 0 100 60 0 60 0 0 351 c0 328 1 350 18 347 16 -3 17 -29 17 -378z m-925 -355 c0 -31 3 -35 25 -35 14 0 25 -4 25 -10 0 -5 -16 -10 -35 -10 -35 0 -35 0 -35 45 0 25 5 45 10 45 6 0 10 -16 10 -35z m50 4 c0 -24 -4 -30 -17 -27 -11 2 -19 14 -21 31 -3 22 1 27 17 27 17 0 21 -6 21 -31z" fill="#7582ec"/>
<path d="M4370 1471 l0 -100 -60 2 -60 2 0 -317 c0 -311 0 -318 20 -318 17 0 20 -7 20 -50 l0 -50 40 0 40 0 0 -50 c0 -43 3 -50 20 -50 17 0 20 -7 20 -50 l0 -50 320 0 320 0 2 53 c0 28 1 72 2 97 l1 45 57 3 56 3 4 57 c2 31 2 85 -1 120 l-3 62 -39 0 -39 0 0 45 0 45 -120 0 -120 0 0 -98 0 -99 -140 0 -140 0 3 231 2 231 138 3 137 3 0 -51 c0 -43 3 -50 20 -50 17 0 20 -7 20 -50 l0 -50 139 0 139 0 4 58 c2 31 2 85 -1 120 l-3 62 -40 0 -40 0 4 48 c3 45 2 48 -19 44 -22 -4 -23 -1 -23 52 l0 56 -40 0 -40 0 0 45 0 45 -300 0 -300 0 0 -99z m670 -51 c0 -27 -4 -50 -10 -50 -5 0 -10 18 -10 40 0 36 -2 40 -25 40 -14 0 -25 5 -25 10 0 6 16 10 35 10 l35 0 0 -50z m-32 -18 c3 -27 0 -32 -17 -32 -17 0 -21 6 -21 36 0 28 3 35 18 32 11 -2 18 -14 20 -36z m-158 -92 l0 -30 -160 0 -160 0 -1 -57 c0 -32 0 -147 0 -255 1 -192 1 -198 -19 -198 -20 0 -20 6 -20 285 l0 285 180 0 180 0 0 -30z m0 -50 c0 -6 -55 -10 -145 -10 l-145 0 0 -240 c0 -153 -4 -240 -10 -240 -6 0 -10 90 -10 250 l0 250 155 0 c97 0 155 -4 155 -10z m310 -100 l0 -110 -130 0 -130 0 0 45 c0 25 5 45 10 45 6 0 10 -16 10 -35 l0 -35 110 0 110 0 0 90 c0 89 0 90 -25 90 -14 0 -25 5 -25 10 0 6 16 10 35 10 l35 0 0 -110z m-35 0 l0 -75 -95 0 -95 0 -3 28 -3 27 80 0 81 0 0 51 c0 43 3 50 18 47 14 -3 17 -15 17 -78z m35 -400 l0 -110 -60 0 -60 0 0 -100 0 -100 -310 0 -310 0 0 45 c0 25 5 45 10 45 6 0 10 -16 10 -35 l0 -35 290 0 290 0 0 100 0 100 60 0 60 0 0 90 c0 89 0 90 -25 90 -14 0 -25 5 -25 10 0 6 16 10 35 10 l35 0 0 -110z m-35 0 l0 -75 -57 -3 -58 -3 -2 -57 c0 -31 -2 -75 -2 -97 l-1 -40 -275 0 -275 0 -3 28 -3 27 260 0 261 0 0 100 0 100 60 0 60 0 0 51 c0 43 3 50 18 47 14 -3 17 -15 17 -78z m-805 -55 c0 -31 3 -35 25 -35 14 0 25 -4 25 -10 0 -5 -16 -10 -35 -10 -35 0 -35 0 -35 45 0 25 5 45 10 45 6 0 10 -16 10 -35z m50 4 c0 -24 -4 -30 -17 -27 -11 2 -19 14 -21 31 -3 22 1 27 17 27 17 0 21 -6 21 -31z" fill="#7582ec"/>
<path d="M5210 1055 c0 -508 0 -515 20 -515 17 0 20 -7 20 -50 l0 -50 140 0 140 0 1 53 c0 28 1 117 2 197 l2 145 138 3 137 3 0 -151 c0 -143 1 -150 20 -150 17 0 20 -7 20 -50 l0 -50 140 0 140 0 1 50 c0 28 0 237 0 465 0 228 0 440 0 470 l-1 55 -40 0 -40 0 0 45 0 45 -120 0 -120 0 0 -198 0 -199 -141 0 -141 0 2 96 c1 53 2 122 1 154 l-1 57 -40 0 -40 0 0 45 0 45 -120 0 -120 0 0 -515z m310 265 c0 -93 -4 -150 -10 -150 -6 0 -10 53 -10 140 l0 140 -25 0 c-14 0 -25 5 -25 10 0 6 16 10 35 10 l35 0 0 -150z m600 -360 l0 -510 -130 0 -130 0 0 45 c0 25 5 45 10 45 6 0 10 -16 10 -35 l0 -35 110 0 110 0 0 490 0 490 -25 0 c-14 0 -25 5 -25 10 0 6 16 10 35 10 l35 0 0 -510z m-632 342 c3 -127 2 -132 -18 -132 -19 0 -20 6 -20 136 0 124 2 135 18 132 15 -3 17 -19 20 -136z m597 -342 l0 -475 -95 0 -95 0 -3 27 -3 28 80 0 81 0 0 451 c0 424 1 450 18 447 16 -3 17 -34 17 -478z m-275 -50 l0 -30 -160 0 -160 0 -1 -57 c0 -32 -1 -121 -2 -198 l-2 -140 -95 0 -95 0 -3 28 -3 27 80 0 81 0 0 200 0 200 180 0 180 0 0 -30z m0 -50 c0 -6 -55 -10 -145 -10 l-145 0 0 -200 0 -200 -130 0 -130 0 0 45 c0 25 5 45 10 45 6 0 10 -16 10 -35 l0 -35 110 0 110 0 0 200 0 200 155 0 c97 0 155 -4 155 -10z" fill="#7582ec"/>
<path d="M6530 1471 l0 -100 -60 2 -60 2 0 -117 c0 -111 1 -118 20 -118 17 0 20 -7 20 -50 l0 -50 40 0 40 0 0 -50 c0 -43 3 -50 20 -50 17 0 20 -7 20 -50 l0 -50 220 0 220 0 0 -36 0 -35 -300 3 -300 3 0 -117 c0 -111 1 -118 20 -118 17 0 20 -7 20 -50 l0 -50 380 0 380 0 2 53 c0 28 1 72 2 97 l1 45 57 3 56 3 4 57 c2 31 2 85 -1 120 l-3 62 -40 0 -40 0 4 48 c3 45 2 48 -19 44 -22 -4 -23 -1 -23 52 l0 56 -40 0 -40 0 0 45 0 45 -201 0 -200 0 3 33 3 32 297 3 296 2 4 58 c2 31 2 85 -1 120 l-3 62 -39 0 -39 0 0 45 0 45 -360 0 -360 0 0 -99z m790 -111 l0 -110 -300 0 -300 0 0 -40 c0 -22 -4 -40 -10 -40 -5 0 -10 23 -10 50 l0 50 300 0 300 0 0 90 c0 89 0 90 -25 90 -14 0 -25 5 -25 10 0 6 16 10 35 10 l35 0 0 -110z m-35 0 l0 -75 -297 -3 -298 -2 0 -55 c0 -48 -2 -55 -20 -55 -18 0 -20 7 -20 85 l0 85 300 0 300 0 0 51 c0 43 3 50 18 47 14 -3 17 -15 17 -78z m-805 -255 c0 -31 3 -35 25 -35 14 0 25 -4 25 -10 0 -5 -16 -10 -35 -10 -35 0 -35 0 -35 45 0 25 5 45 10 45 6 0 10 -16 10 -35z m50 4 c0 -24 -4 -30 -17 -27 -11 2 -19 14 -21 31 -3 22 1 27 17 27 17 0 21 -6 21 -31z m670 -89 c0 -27 -4 -50 -10 -50 -5 0 -10 18 -10 40 0 36 -2 40 -25 40 -14 0 -25 5 -25 10 0 6 16 10 35 10 l35 0 0 -50z m-32 -18 c3 -27 0 -32 -17 -32 -17 0 -21 6 -21 36 0 28 3 35 18 32 11 -2 18 -14 20 -36z m-568 -97 l0 -35 205 0 c130 0 205 -4 205 -10 0 -6 -78 -10 -215 -10 l-215 0 0 45 c0 25 5 45 10 45 6 0 10 -16 10 -35z m410 5 l0 -30 -197 2 -198 3 -3 28 -3 27 200 0 201 0 0 -30z m310 -150 l0 -110 -60 0 -60 0 0 -100 0 -100 -370 0 -370 0 0 45 c0 25 5 45 10 45 6 0 10 -16 10 -35 l0 -35 350 0 350 0 0 100 0 100 60 0 60 0 0 90 c0 89 0 90 -25 90 -14 0 -25 5 -25 10 0 6 16 10 35 10 l35 0 0 -110z m-35 0 l0 -75 -57 -3 -58 -3 -2 -57 c0 -31 -2 -75 -2 -97 l-1 -40 -335 0 -335 0 -3 28 -3 27 320 0 321 0 0 100 0 100 60 0 60 0 0 51 c0 43 3 50 18 47 14 -3 17 -15 17 -78z" fill="#7582ec"/>
<path d="M7490 1471 l0 -100 -60 2 -60 2 0 -317 c0 -311 0 -318 20 -318 17 0 20 -7 20 -50 l0 -50 40 0 40 0 0 -50 c0 -43 3 -50 20 -50 17 0 20 -7 20 -50 l0 -50 320 0 320 0 2 53 c0 28 1 72 2 97 l1 45 58 3 57 3 1 49 c0 28 0 147 0 265 0 118 0 240 0 270 l-1 55 -41 0 -41 0 4 48 c3 45 2 48 -19 44 -22 -4 -23 -1 -23 52 l0 56 -40 0 -40 0 0 45 0 45 -300 0 -300 0 0 -99z m670 -51 c0 -27 -4 -50 -10 -50 -5 0 -10 18 -10 40 0 36 -2 40 -25 40 -14 0 -25 5 -25 10 0 6 16 10 35 10 l35 0 0 -50z m-32 -18 c3 -27 0 -32 -17 -32 -17 0 -21 6 -21 36 0 28 3 35 18 32 11 -2 18 -14 20 -36z m-158 -92 l0 -30 -160 0 -160 0 -1 -57 c0 -32 0 -147 0 -255 1 -192 1 -198 -19 -198 -20 0 -20 6 -20 285 l0 285 180 0 180 0 0 -30z m0 -50 c0 -6 -55 -10 -145 -10 l-145 0 0 -240 c0 -153 -4 -240 -10 -240 -6 0 -10 90 -10 250 l0 250 155 0 c97 0 155 -4 155 -10z m310 -300 l0 -310 -60 0 -60 0 0 -100 0 -100 -310 0 -310 0 0 45 c0 25 5 45 10 45 6 0 10 -16 10 -35 l0 -35 290 0 290 0 0 100 0 100 60 0 60 0 0 290 0 290 -25 0 c-14 0 -25 5 -25 10 0 6 16 10 35 10 l35 0 0 -310z m-310 47 l0 -234 -140 0 -140 0 1 226 c1 124 3 229 6 234 2 4 65 7 139 7 l134 0 0 -233z m275 -47 l0 -275 -57 -3 -58 -3 -2 -57 c0 -31 -2 -75 -2 -97 l-1 -40 -275 0 -275 0 -3 28 -3 27 260 0 261 0 0 100 0 100 60 0 60 0 0 251 c0 233 1 250 18 247 16 -3 17 -24 17 -278z m-805 -255 c0 -31 3 -35 25 -35 14 0 25 -4 25 -10 0 -5 -16 -10 -35 -10 -35 0 -35 0 -35 45 0 25 5 45 10 45 6 0 10 -16 10 -35z m50 4 c0 -24 -4 -30 -17 -27 -11 2 -19 14 -21 31 -3 22 1 27 17 27 17 0 21 -6 21 -31z" fill="#7582ec"/>
<path d="M8330 1155 c0 -408 0 -415 20 -415 17 0 20 -7 20 -50 l0 -50 40 0 40 0 0 -50 c0 -43 3 -50 20 -50 17 0 20 -7 20 -50 l0 -50 380 0 380 0 2 53 c0 28 1 72 2 97 l1 45 58 3 57 3 1 49 c0 28 0 192 0 365 0 173 0 340 0 370 l-1 55 -40 0 -40 0 0 45 0 45 -120 0 -120 0 0 -398 0 -399 -200 0 -200 0 1 296 c0 163 0 322 0 354 l-1 57 -40 0 -40 0 0 45 0 45 -120 0 -120 0 0 -415z m310 -35 c0 -227 -4 -350 -10 -350 -6 0 -10 120 -10 340 l0 340 -25 0 c-14 0 -25 5 -25 10 0 6 16 10 35 10 l35 0 0 -350z m720 -60 l0 -410 -60 0 -60 0 0 -100 0 -100 -370 0 -370 0 0 45 c0 25 5 45 10 45 6 0 10 -16 10 -35 l0 -35 350 0 350 0 0 100 0 100 60 0 60 0 0 390 0 390 -25 0 c-14 0 -25 5 -25 10 0 6 16 10 35 10 l35 0 0 -410z m-753 42 c2 -324 2 -332 -17 -332 -19 0 -20 9 -20 336 0 314 1 335 18 332 16 -3 17 -28 19 -336z m718 -42 l0 -375 -57 -3 -58 -3 -2 -57 c0 -31 -2 -75 -2 -97 l-1 -40 -335 0 -335 0 -3 27 -3 28 320 0 321 0 0 100 0 100 60 0 60 0 0 351 c0 328 1 350 18 347 16 -3 17 -29 17 -378z m-925 -355 c0 -31 3 -35 25 -35 14 0 25 -4 25 -10 0 -5 -16 -10 -35 -10 -35 0 -35 0 -35 45 0 25 5 45 10 45 6 0 10 -16 10 -35z m50 4 c0 -24 -4 -30 -17 -27 -11 2 -19 14 -21 31 -3 22 1 27 17 27 17 0 21 -6 21 -31z" fill="#7582ec"/>
<path d="M9410 1055 c0 -508 0 -515 20 -515 17 0 20 -7 20 -50 l0 -50 140 0 140 0 1 53 c0 28 1 162 2 297 2 224 3 245 20 248 14 3 17 -4 17 -47 0 -44 3 -51 20 -51 17 0 20 -7 20 -50 l0 -50 40 0 40 0 0 -50 c0 -43 3 -50 20 -50 17 0 20 -7 20 -50 l0 -50 140 0 140 0 2 53 c0 28 1 72 2 97 l1 45 58 3 57 3 2 52 c0 29 1 72 2 97 1 34 5 45 19 48 16 3 17 -14 17 -247 0 -244 1 -251 20 -251 17 0 20 -7 20 -50 l0 -50 140 0 140 0 1 50 c0 28 0 237 0 465 0 228 0 440 0 470 l-1 55 -40 0 -40 0 0 45 0 45 -180 0 -180 0 0 -99 0 -100 -60 2 -60 2 0 -101 0 -101 -80 0 -80 -1 0 54 0 54 -41 0 -41 0 4 48 c3 45 2 48 -19 44 -22 -4 -23 -1 -23 52 l0 56 -40 0 -40 0 0 45 0 45 -180 0 -180 0 0 -515z m430 365 c0 -27 -4 -50 -10 -50 -5 0 -10 18 -10 40 0 36 -2 40 -25 40 -14 0 -25 5 -25 10 0 6 16 10 35 10 l35 0 0 -50z m840 -460 l0 -510 -130 0 -130 0 0 45 c0 25 5 45 10 45 6 0 10 -16 10 -35 l0 -35 110 0 110 0 0 490 0 490 -25 0 c-14 0 -25 5 -25 10 0 6 16 10 35 10 l35 0 0 -510z m-872 442 c3 -27 0 -32 -17 -32 -17 0 -21 6 -21 36 0 28 3 35 18 32 11 -2 18 -14 20 -36z m837 -442 l0 -475 -95 0 -95 0 -3 27 -3 28 80 0 81 0 0 451 c0 424 1 450 18 447 16 -3 17 -34 17 -478z m-685 260 c0 -27 -4 -50 -10 -50 -5 0 -10 18 -10 40 0 36 -2 40 -25 40 -14 0 -25 5 -25 10 0 6 16 10 35 10 l35 0 0 -50z m-32 -18 c3 -27 0 -32 -17 -32 -17 0 -21 6 -21 36 0 28 3 35 18 32 11 -2 18 -14 20 -36z m-158 -92 c0 -28 -2 -30 -40 -30 l-40 0 -1 -57 c0 -32 -1 -166 -2 -298 l-2 -240 -95 0 -95 0 -3 28 -3 27 80 0 81 0 0 300 0 300 60 0 60 0 0 -30z m600 0 c0 -28 -2 -30 -40 -30 l-40 0 -2 -57 c0 -32 -2 -76 -2 -98 l-1 -40 -57 -3 -58 -3 -2 -57 c0 -31 -2 -75 -2 -97 l-1 -40 -95 0 -95 0 -3 28 -3 27 80 0 81 0 0 100 0 100 60 0 60 0 0 100 0 100 60 0 60 0 0 -30z m-600 -50 c0 -5 -11 -10 -25 -10 l-25 0 0 -300 0 -300 -130 0 -130 0 0 45 c0 25 5 45 10 45 6 0 10 -16 10 -35 l0 -35 110 0 110 0 0 300 0 300 35 0 c19 0 35 -4 35 -10z m600 0 c0 -5 -11 -10 -25 -10 l-25 0 0 -100 0 -100 -60 0 -60 0 0 -100 0 -100 -130 0 -130 0 0 45 c0 25 5 45 10 45 6 0 10 -16 10 -35 l0 -35 110 0 110 0 0 100 0 100 60 0 60 0 0 100 0 100 35 0 c19 0 35 -4 35 -10z m-530 -155 c0 -31 3 -35 25 -35 14 0 25 -4 25 -10 0 -5 -16 -10 -35 -10 -35 0 -35 0 -35 45 0 25 5 45 10 45 6 0 10 -16 10 -35z m50 4 c0 -24 -4 -30 -17 -27 -11 2 -19 14 -21 31 -3 22 1 27 17 27 17 0 21 -6 21 -31z" fill="#7582ec"/>
<path d="M10730 1055 c0 -508 0 -515 20 -515 17 0 20 -7 20 -50 l0 -50 140 0 140 0 1 50 c0 28 0 237 0 465 0 228 0 440 0 470 l-1 55 -40 0 -40 0 0 45 0 45 -120 0 -120 0 0 -515z m310 -95 l0 -510 -130 0 -130 0 0 45 c0 25 5 45 10 45 6 0 10 -16 10 -35 l0 -35 110 0 110 0 0 490 0 490 -25 0 c-14 0 -25 5 -25 10 0 6 16 10 35 10 l35 0 0 -510z m-35 0 l0 -475 -95 0 -95 0 -3 27 -3 28 80 0 81 0 0 451 c0 424 1 450 18 447 16 -3 17 -34 17 -478z" fill="#7582ec"/>
<path d="M11090 1455 c0 -108 1 -115 20 -115 17 0 20 -7 20 -50 l0 -50 40 0 40 0 0 -50 c0 -43 3 -50 20 -50 17 0 20 -7 20 -50 l0 -50 40 0 40 0 0 -50 c0 -43 3 -50 20 -50 17 0 20 -7 20 -50 l0 -50 40 0 40 0 0 -150 c0 -143 1 -150 20 -150 17 0 20 -7 20 -50 l0 -50 140 0 140 0 1 53 c0 28 1 117 2 197 l2 145 58 3 57 3 2 52 c0 29 1 72 2 97 l1 45 58 3 57 3 2 52 c0 29 1 72 2 97 l1 45 57 3 56 3 4 57 c2 31 2 85 -1 120 l-3 62 -39 0 -39 0 0 45 0 45 -120 0 -120 0 0 -99 0 -100 -60 2 -60 2 0 -101 0 -101 -80 0 -80 -1 0 54 0 54 -41 0 -41 0 4 48 c3 45 2 48 -19 44 -22 -4 -23 -1 -23 52 l0 56 -40 0 -40 0 0 45 0 45 -120 0 -120 0 0 -115z m310 -35 c0 -27 -4 -50 -10 -50 -5 0 -10 18 -10 40 0 36 -2 40 -25 40 -14 0 -25 5 -25 10 0 6 16 10 35 10 l35 0 0 -50z m720 -60 l0 -110 -60 0 -60 0 0 -100 0 -100 -60 0 -60 0 0 -100 0 -100 -60 0 -60 0 0 -200 0 -200 -130 0 -130 0 0 45 c0 25 5 45 10 45 6 0 10 -16 10 -35 l0 -35 110 0 110 0 0 200 0 200 60 0 60 0 0 100 0 100 60 0 60 0 0 100 0 100 60 0 60 0 0 90 c0 89 0 90 -25 90 -14 0 -25 5 -25 10 0 6 16 10 35 10 l35 0 0 -110z m-752 42 c3 -27 0 -32 -17 -32 -17 0 -21 6 -21 36 0 28 3 35 18 32 11 -2 18 -14 20 -36z m717 -42 l0 -75 -57 -3 -58 -3 -2 -57 c0 -31 -2 -75 -2 -97 l-1 -40 -57 -3 -58 -3 -2 -57 c0 -31 -2 -75 -2 -97 l-1 -40 -57 -3 -58 -3 -1 -57 c0 -31 -1 -120 -2 -197 l-2 -140 -95 0 -95 0 -3 28 -3 27 80 0 81 0 0 200 0 200 60 0 60 0 0 100 0 100 60 0 60 0 0 100 0 100 60 0 60 0 0 51 c0 43 3 50 18 47 14 -3 17 -15 17 -78z m-925 -55 c0 -31 3 -35 25 -35 14 0 25 -4 25 -10 0 -5 -16 -10 -35 -10 -35 0 -35 0 -35 45 0 25 5 45 10 45 6 0 10 -16 10 -35z m50 4 c0 -24 -4 -30 -17 -27 -11 2 -19 14 -21 31 -3 22 1 27 17 27 17 0 21 -6 21 -31z m310 -89 c0 -27 -4 -50 -10 -50 -5 0 -10 18 -10 40 0 36 -2 40 -25 40 -14 0 -25 5 -25 10 0 6 16 10 35 10 l35 0 0 -50z m-32 -18 c3 -27 0 -32 -17 -32 -17 0 -21 6 -21 36 0 28 3 35 18 32 11 -2 18 -14 20 -36z m-208 -97 c0 -31 3 -35 25 -35 14 0 25 -4 25 -10 0 -5 -16 -10 -35 -10 -35 0 -35 0 -35 45 0 25 5 45 10 45 6 0 10 -16 10 -35z m50 4 c0 -24 -4 -30 -17 -27 -11 2 -19 14 -21 31 -3 22 1 27 17 27 17 0 21 -6 21 -31z m70 -204 c0 -31 3 -35 25 -35 14 0 25 -4 25 -10 0 -5 -16 -10 -35 -10 -35 0 -35 0 -35 45 0 25 5 45 10 45 6 0 10 -16 10 -35z m50 4 c0 -24 -4 -30 -17 -27 -11 2 -19 14 -21 31 -3 22 1 27 17 27 17 0 21 -6 21 -31z" fill="#7582ec"/>
<path d="M12290 1471 l0 -100 -60 2 -60 2 0 -417 c0 -411 0 -418 20 -418 17 0 20 -7 20 -50 l0 -50 140 0 140 0 1 53 c0 28 1 117 2 197 l2 145 138 3 137 3 0 -151 c0 -143 1 -150 20 -150 17 0 20 -7 20 -50 l0 -50 140 0 140 0 1 50 c0 28 0 192 0 365 0 173 0 340 0 370 l-1 55 -41 0 -41 0 4 48 c3 45 2 48 -19 44 -22 -4 -23 -1 -23 52 l0 56 -40 0 -40 0 0 45 0 45 -300 0 -300 0 0 -99z m670 -51 c0 -27 -4 -50 -10 -50 -5 0 -10 18 -10 40 0 36 -2 40 -25 40 -14 0 -25 5 -25 10 0 6 16 10 35 10 l35 0 0 -50z m-32 -18 c3 -27 0 -32 -17 -32 -17 0 -21 6 -21 36 0 28 3 35 18 32 11 -2 18 -14 20 -36z m-158 -92 l0 -30 -160 0 -160 0 0 -55 c0 -48 -2 -55 -20 -55 -18 0 -20 7 -20 85 l0 85 180 0 180 0 0 -30z m0 -50 c0 -6 -55 -10 -145 -10 l-145 0 0 -40 c0 -22 -4 -40 -10 -40 -5 0 -10 23 -10 50 l0 50 155 0 c97 0 155 -4 155 -10z m310 -400 l0 -410 -130 0 -130 0 0 45 c0 25 5 45 10 45 6 0 10 -16 10 -35 l0 -35 110 0 110 0 0 390 0 390 -25 0 c-14 0 -25 5 -25 10 0 6 16 10 35 10 l35 0 0 -410z m-310 345 l0 -35 -140 0 -140 0 0 28 c0 16 3 32 7 35 3 4 66 7 140 7 l133 0 0 -35z m275 -345 l0 -375 -95 0 -95 0 -3 28 -3 27 80 0 81 0 0 351 c0 328 1 350 18 347 16 -3 17 -29 17 -378z m-275 50 l0 -30 -160 0 -160 0 -1 -57 c0 -32 -1 -121 -2 -198 l-2 -140 -95 0 -95 0 -3 28 -3 27 80 0 81 0 0 200 0 200 180 0 180 0 0 -30z m0 -50 c0 -6 -55 -10 -145 -10 l-145 0 0 -200 0 -200 -130 0 -130 0 0 45 c0 25 5 45 10 45 6 0 10 -16 10 -35 l0 -35 110 0 110 0 0 200 0 200 155 0 c97 0 155 -4 155 -10z" fill="#7582ec"/>
</g>
</svg>